<?xml version="1.0" encoding="UTF-8"?> <svg xmlns="http://www.w3.org/2000/svg" width="30" height="22" viewBox="0 0 30 22" fill="none"><path d="M19.0075 -0.000244141C16.9634 7.5765e-05 14.9597 0.569331 13.2207 1.6438C11.4817 2.71826 10.0761 4.25553 9.16125 6.08351C8.40087 7.59897 8.00332 9.27049 8 10.966C8.00392 11.2236 7.91043 11.4732 7.73823 11.6649C7.56603 11.8566 7.32782 11.9762 7.07125 11.9998C6.93406 12.0096 6.79632 11.991 6.66665 11.9451C6.53698 11.8993 6.41816 11.8271 6.31762 11.7333C6.21708 11.6394 6.13698 11.5259 6.08233 11.3996C6.02768 11.2734 5.99965 11.1373 6 10.9998C5.99894 9.60105 6.22436 8.21141 6.6675 6.88476C6.6967 6.79969 6.70241 6.70833 6.68404 6.62029C6.66566 6.53225 6.62388 6.45079 6.5631 6.38451C6.50232 6.31822 6.42478 6.26956 6.33866 6.24364C6.25254 6.21773 6.16102 6.21552 6.07375 6.23726C4.34103 6.66913 2.80227 7.66754 1.70185 9.07392C0.601429 10.4803 0.00243684 12.214 0 13.9998C0 18.3985 3.71875 21.9998 8.125 21.9998H19C20.4807 21.9982 21.9459 21.698 23.3079 21.1171C24.6699 20.5362 25.9007 19.6866 26.9268 18.6191C27.9529 17.5516 28.7531 16.2881 29.2797 14.9042C29.8062 13.5202 30.0482 12.0444 29.9912 10.5648C29.7637 4.69226 24.8837 -0.000244141 19.0075 -0.000244141Z" fill="black"></path></svg> 