<?xml version="1.0" encoding="UTF-8"?> <svg xmlns="http://www.w3.org/2000/svg" width="26" height="24" viewBox="0 0 26 24" fill="none"><path d="M25.9033 1.43L20.1995 13.4075C20.1936 13.422 20.187 13.4362 20.1795 13.45L15.9033 22.43C15.8489 22.5518 15.7706 22.6614 15.6732 22.7525C15.5758 22.8436 15.4611 22.9143 15.336 22.9604C15.2108 23.0065 15.0777 23.0271 14.9445 23.0209C14.8112 23.0148 14.6806 22.9821 14.5602 22.9248C14.4398 22.8674 14.3321 22.7865 14.2434 22.6869C14.1547 22.5873 14.0868 22.4709 14.0438 22.3447C14.0008 22.2185 13.9834 22.0849 13.9928 21.9518C14.0021 21.8188 14.038 21.689 14.0983 21.57L17.7033 14H1.00079C0.802892 14.0002 0.609399 13.9416 0.444805 13.8317C0.280212 13.7218 0.151917 13.5656 0.076165 13.3828C0.000412494 13.2 -0.0193921 12.9988 0.0192583 12.8047C0.0579087 12.6106 0.153276 12.4324 0.293288 12.2925L5.58704 7L0.293288 1.7075C0.153276 1.56764 0.0579087 1.38939 0.0192583 1.19531C-0.0193921 1.00122 0.000412494 0.800033 0.076165 0.61721C0.151917 0.434387 0.280212 0.278151 0.444805 0.16828C0.609399 0.0584092 0.802892 -0.000155428 1.00079 3.09801e-07H25.0008C25.1696 5.58239e-05 25.3356 0.0428433 25.4835 0.124376C25.6313 0.205908 25.756 0.323532 25.8461 0.466286C25.9362 0.609039 25.9887 0.772277 25.9987 0.940788C26.0087 1.1093 25.9759 1.2776 25.9033 1.43Z" fill="#E4E5EE"></path></svg> 