<?xml version="1.0" encoding="UTF-8"?> <svg xmlns="http://www.w3.org/2000/svg" width="26" height="26" viewBox="0 0 26 26" fill="none"><rect width="26" height="26" rx="8" fill="#FF634C"></rect><g clip-path="url(#clip0_56_125)"><path d="M19.6432 12.8032L10.9765 22.0889C10.8847 22.1869 10.7634 22.2524 10.6311 22.2755C10.4988 22.2985 10.3626 22.278 10.243 22.2168C10.1234 22.1557 10.0269 22.0573 9.96814 21.9365C9.90937 21.8157 9.89148 21.6791 9.91717 21.5472L11.0516 15.8729L6.59211 14.1984C6.49633 14.1625 6.41093 14.1036 6.34351 14.0267C6.2761 13.9498 6.22879 13.8574 6.20579 13.7578C6.1828 13.6581 6.18485 13.5543 6.21175 13.4557C6.23865 13.357 6.28957 13.2666 6.35996 13.1924L15.0266 3.90671C15.1185 3.80869 15.2397 3.74321 15.372 3.72014C15.5043 3.69707 15.6406 3.71766 15.7602 3.77881C15.8798 3.83996 15.9762 3.93835 16.035 4.05913C16.0938 4.17991 16.1117 4.31653 16.086 4.44837L14.9485 10.1289L19.4079 11.8011C19.503 11.8372 19.5877 11.8961 19.6546 11.9727C19.7215 12.0493 19.7685 12.1411 19.7914 12.2402C19.8144 12.3393 19.8126 12.4424 19.7862 12.5406C19.7598 12.6388 19.7096 12.729 19.6401 12.8032H19.6432Z" fill="white"></path></g><defs><clipPath id="clip0_56_125"><rect width="19.8095" height="19.8095" fill="white" transform="translate(3.09521 3.09521)"></rect></clipPath></defs></svg> 