<?xml version="1.0" encoding="UTF-8"?> <svg xmlns="http://www.w3.org/2000/svg" width="32" height="32" viewBox="0 0 32 32" fill="none"><g clip-path="url(#clip0_91_141)"><path d="M30.9137 15.5948C30.87 15.496 29.8112 13.1473 27.4575 10.7935C24.3212 7.65726 20.36 5.99976 16 5.99976C11.64 5.99976 7.67874 7.65726 4.54249 10.7935C2.18874 13.1473 1.12499 15.4998 1.08624 15.5948C1.02938 15.7226 1 15.861 1 16.001C1 16.141 1.02938 16.2794 1.08624 16.4073C1.12999 16.506 2.18874 18.8535 4.54249 21.2073C7.67874 24.3423 11.64 25.9998 16 25.9998C20.36 25.9998 24.3212 24.3423 27.4575 21.2073C29.8112 18.8535 30.87 16.506 30.9137 16.4073C30.9706 16.2794 31 16.141 31 16.001C31 15.861 30.9706 15.7226 30.9137 15.5948ZM16 20.9998C15.0111 20.9998 14.0444 20.7065 13.2221 20.1571C12.3999 19.6077 11.759 18.8268 11.3806 17.9132C11.0022 16.9995 10.9031 15.9942 11.0961 15.0243C11.289 14.0544 11.7652 13.1635 12.4645 12.4642C13.1637 11.765 14.0546 11.2888 15.0245 11.0958C15.9944 10.9029 16.9998 11.0019 17.9134 11.3804C18.827 11.7588 19.6079 12.3997 20.1573 13.2219C20.7067 14.0442 21 15.0108 21 15.9998C21 17.3258 20.4732 18.5976 19.5355 19.5353C18.5978 20.473 17.3261 20.9998 16 20.9998Z" fill="black"></path></g><defs><clipPath id="clip0_91_141"><rect width="32" height="32" fill="white" transform="translate(0 -0.000244141)"></rect></clipPath></defs></svg> 